<?xml version="1.0" encoding="UTF-8" standalone="no"?>
<!-- Created with Inkscape (http://www.inkscape.org/) -->

<svg
   xmlns:dc="http://purl.org/dc/elements/1.1/"
   xmlns:cc="http://creativecommons.org/ns#"
   xmlns:rdf="http://www.w3.org/1999/02/22-rdf-syntax-ns#"
   xmlns:svg="http://www.w3.org/2000/svg"
   xmlns="http://www.w3.org/2000/svg"
   xmlns:sodipodi="http://sodipodi.sourceforge.net/DTD/sodipodi-0.dtd"
   xmlns:inkscape="http://www.inkscape.org/namespaces/inkscape"
   width="210mm"
   height="297mm"
   viewBox="0 0 210 297"
   version="1.1"
   id="svg8"
   inkscape:version="0.92.1 r15371"
   sodipodi:docname="BierBox Gehäuse 02.svg">
  <defs
     id="defs2" />
  <sodipodi:namedview
     id="base"
     pagecolor="#ffffff"
     bordercolor="#666666"
     borderopacity="1.0"
     inkscape:pageopacity="0.0"
     inkscape:pageshadow="2"
     inkscape:zoom="0.7"
     inkscape:cx="-1337.5094"
     inkscape:cy="765.16929"
     inkscape:document-units="mm"
     inkscape:current-layer="g4767"
     showgrid="false"
     inkscape:showpageshadow="false"
     inkscape:measure-start="0,0"
     inkscape:measure-end="0,0"
     inkscape:window-width="1920"
     inkscape:window-height="1027"
     inkscape:window-x="1358"
     inkscape:window-y="-8"
     inkscape:window-maximized="1"
     showguides="true"
     inkscape:guide-bbox="true"
     inkscape:snap-object-midpoints="true"
     inkscape:object-nodes="true"
     inkscape:snap-others="true"
     inkscape:object-paths="false"
     inkscape:snap-nodes="false" />
  <metadata
     id="metadata5">
    <rdf:RDF>
      <cc:Work
         rdf:about="">
        <dc:format>image/svg+xml</dc:format>
        <dc:type
           rdf:resource="http://purl.org/dc/dcmitype/StillImage" />
        <dc:title></dc:title>
      </cc:Work>
    </rdf:RDF>
  </metadata>
  <g
     inkscape:label="Ebene 1"
     inkscape:groupmode="layer"
     id="layer1">
    <g
       id="g5257"
       transform="translate(264.5324,-19.135966)">
      <g
         transform="translate(0,-76)"
         id="g4685">
        <g
           transform="translate(204.27613,-47.000001)"
           id="g4681" />
      </g>
      <g
         transform="translate(0.52916667,8.41232)"
         id="g4762" />
    </g>
    <g
       id="g4827"
       transform="translate(264.5324,-26.015136)">
      <g
         id="g4669">
        <g
           id="g4623"
           transform="translate(204.27613,-47.000001)" />
      </g>
    </g>
    <text
       xml:space="preserve"
       style="font-style:normal;font-weight:normal;font-size:4.23333311px;line-height:100;font-family:sans-serif;letter-spacing:0px;word-spacing:0px;fill:#000000;fill-opacity:1;stroke:none;stroke-width:0.26458332"
       x="338.43005"
       y="256.37503"
       id="text4645"><tspan
         sodipodi:role="line"
         id="tspan4643"
         x="338.43005"
         y="469.25806"
         style="stroke-width:0.26458332" /></text>
    <text
       xml:space="preserve"
       style="font-style:normal;font-weight:normal;font-size:4.23333311px;line-height:1;font-family:sans-serif;letter-spacing:0px;word-spacing:0px;fill:#000000;fill-opacity:1;stroke:none;stroke-width:0.26458332"
       x="343.95834"
       y="163.38541"
       id="text4683"><tspan
         sodipodi:role="line"
         id="tspan4681"
         x="343.95834"
         y="166.71844"
         style="line-height:1;stroke-width:0.26458332" /></text>
    <flowRoot
       xml:space="preserve"
       id="flowRoot4703"
       style="fill:black;fill-opacity:1;stroke:none;font-family:sans-serif;font-style:normal;font-weight:normal;font-size:12px;line-height:1;letter-spacing:0px;word-spacing:0px"><flowRegion
         id="flowRegion4705"><rect
           id="rect4707"
           width="62.857143"
           height="24.285715"
           x="1062.8572"
           y="641.80542" /></flowRegion><flowPara
         id="flowPara4709" /></flowRoot>    <g
       id="g4803"
       transform="rotate(-90,-152.75638,210.92336)">
      <path
         id="path4617"
         d="M -0.73786,39.42511 H -3.63795 V 27.42533 h -11.99978 v -2.9001 h -20.00033 v 2.9001 h -19.90008 v -2.9001 h -20.09954 v 2.9001 h -19.90008 v -2.9001 h -20.10007 v 2.9001 h -19.90007 v -2.9001 h -20.1998 v 2.9001 h -11.99979 v 11.99978 h -2.90008 v 20.2003 h 2.90008 v 19.90008 h -2.90008 v 20.09955 h 2.90008 v 19.90008 h -2.90008 v 20.10008 h 2.90008 v 19.90008 h -2.90008 v 20.10005 h 2.90008 v 19.90008 h -2.90008 v 20.10008 h 2.90008 v 19.89955 h -2.90008 v 20.00033 h 2.90008 v 11.99978 h 11.99979 v 2.90007 h 19.99981 v -2.90007 h 19.90008 v 2.90007 h 20.30005 v -2.90007 h 19.90008 v 2.90007 h 20.09954 v -2.90007 h 19.90008 v 2.90007 h 20.00033 v -2.90007 h 11.99978 v -11.99978 h 2.90009 v -20.20033 h -2.90009 v -19.89955 h 2.90009 v -20.10008 h -2.90009 v -19.90005 h 2.90009 V 159.32528 H -3.63795 V 139.4252 h 2.90009 V 119.32515 H -3.63795 V 99.42507 h 2.90009 V 79.32552 H -3.63795 V 59.42544 h 2.90009 z"
         style="fill:none;fill-opacity:1;stroke:#000000;stroke-width:0.1;stroke-miterlimit:4;stroke-dasharray:none;stroke-opacity:1"
         inkscape:connector-curvature="0" />
      <g
         transform="rotate(90,183.68913,-51.814685)"
         id="g4641">
        <path
           inkscape:connector-curvature="0"
           style="fill:none;fill-opacity:1;stroke:#000000;stroke-width:0.1;stroke-miterlimit:4;stroke-dasharray:none;stroke-opacity:1"
           d="m 279.79551,216.07914 c 0.69251,0 1.24954,0.55805 1.24954,1.25057 0,0.69248 -0.55703,1.25005 -1.24954,1.25005 -0.6925,0 -1.25057,-0.55757 -1.25057,-1.25005 0,-0.69252 0.55807,-1.25057 1.25057,-1.25057 z"
           id="path4599" />
        <path
           inkscape:connector-curvature="0"
           style="fill:none;fill-opacity:1;stroke:#000000;stroke-width:0.1;stroke-miterlimit:4;stroke-dasharray:none;stroke-opacity:1"
           d="m 355.35317,216.07914 c 0.69249,0 1.25006,0.55805 1.25006,1.25057 0,0.69248 -0.55757,1.25005 -1.25006,1.25005 -0.69249,0 -1.25005,-0.55757 -1.25005,-1.25005 0,-0.69252 0.55756,-1.25057 1.25005,-1.25057 z"
           id="path4597" />
        <path
           inkscape:connector-curvature="0"
           style="fill:none;fill-opacity:1;stroke:#000000;stroke-width:0.1;stroke-miterlimit:4;stroke-dasharray:none;stroke-opacity:1"
           d="m 281.57318,221.10829 h 70.9011 v 24.50083 h -70.9011 z"
           id="path4589" />
        <path
           inkscape:connector-curvature="0"
           style="fill:none;fill-opacity:1;stroke:#000000;stroke-width:0.1;stroke-miterlimit:4;stroke-dasharray:none;stroke-opacity:1"
           d="m 279.79551,247.07983 c 0.69251,0 1.24954,0.55704 1.24954,1.24953 0,0.69253 -0.55703,1.25006 -1.24954,1.25006 -0.6925,0 -1.25057,-0.55753 -1.25057,-1.25006 0,-0.69249 0.55807,-1.24953 1.25057,-1.24953 z"
           id="path4585" />
        <path
           inkscape:connector-curvature="0"
           style="fill:none;fill-opacity:1;stroke:#000000;stroke-width:0.1;stroke-miterlimit:4;stroke-dasharray:none;stroke-opacity:1"
           d="m 355.35317,247.07983 c 0.69249,0 1.25006,0.55704 1.25006,1.24953 0,0.69253 -0.55757,1.25006 -1.25006,1.25006 -0.69249,0 -1.25005,-0.55753 -1.25005,-1.25006 0,-0.69249 0.55756,-1.24953 1.25005,-1.24953 z"
           id="path4583" />
        <path
           inkscape:connector-curvature="0"
           style="fill:none;fill-opacity:1;stroke:#000000;stroke-width:0.1;stroke-miterlimit:4;stroke-dasharray:none;stroke-opacity:1"
           d="m 300.1028,251.38758 c 1.66199,0 2.99981,1.33835 2.99981,3.00033 0,1.662 -1.33782,2.99981 -2.99981,2.99981 -1.66201,0 -2.99982,-1.33781 -2.99982,-2.99981 0,-1.66198 1.33781,-3.00033 2.99982,-3.00033 z"
           id="path4581" />
        <path
           inkscape:connector-curvature="0"
           style="fill:none;fill-opacity:1;stroke:#000000;stroke-width:0.1;stroke-miterlimit:4;stroke-dasharray:none;stroke-opacity:1"
           d="m 290.35249,255.38785 c 1.662,0 3.00033,1.33783 3.00033,2.99981 0,1.66201 -1.33833,3.00033 -3.00033,3.00033 -1.662,0 -2.9993,-1.33832 -2.9993,-3.00033 0,-1.66198 1.3373,-2.99981 2.9993,-2.99981 z"
           id="path4579" />
        <path
           inkscape:connector-curvature="0"
           style="fill:none;fill-opacity:1;stroke:#000000;stroke-width:0.1;stroke-miterlimit:4;stroke-dasharray:none;stroke-opacity:1"
           d="m 308.60357,255.38785 c 1.662,0 2.9993,1.33783 2.9993,2.99981 0,1.66201 -1.3373,3.00033 -2.9993,3.00033 -1.662,0 -3.00033,-1.33832 -3.00033,-3.00033 0,-1.66198 1.33833,-2.99981 3.00033,-2.99981 z"
           id="path4577" />
        <path
           inkscape:connector-curvature="0"
           style="fill:none;fill-opacity:1;stroke:#000000;stroke-width:0.1;stroke-miterlimit:4;stroke-dasharray:none;stroke-opacity:1"
           d="m 317.35291,255.38785 c 1.66198,0 2.99981,1.33783 2.99981,2.99981 0,1.66201 -1.33783,3.00033 -2.99981,3.00033 -1.662,0 -3.00033,-1.33832 -3.00033,-3.00033 0,-1.66198 1.33833,-2.99981 3.00033,-2.99981 z"
           id="path4575" />
        <path
           inkscape:connector-curvature="0"
           style="fill:none;fill-opacity:1;stroke:#000000;stroke-width:0.1;stroke-miterlimit:4;stroke-dasharray:none;stroke-opacity:1"
           d="m 300.1028,259.38813 c 1.66199,0 2.99981,1.33779 2.99981,2.9998 0,1.66198 -1.33782,2.99982 -2.99981,2.99982 -1.66201,0 -2.99982,-1.33784 -2.99982,-2.99982 0,-1.66201 1.33781,-2.9998 2.99982,-2.9998 z"
           id="path4573" />
        <g
           id="g5193"
           transform="translate(258.18236,-8.552627)">
          <path
             inkscape:connector-curvature="0"
             id="path4207"
             d="m 41.784561,255.70677 h 0.344683 l 1.605071,3.32125 h -0.434083 l -1.343586,-2.8112 -1.343589,2.8112 h -0.43408 z"
             style="fill:#ff0000;fill-opacity:1;stroke:#ff0000;stroke-width:0.2;stroke-miterlimit:4;stroke-dasharray:none;stroke-opacity:1" />
          <g
             style="stroke:none;stroke-width:0.12710297;stroke-miterlimit:4;stroke-dasharray:none;stroke-opacity:1"
             transform="matrix(0.7867637,0,0,0.7867637,-8.944806,143.67393)"
             id="g4536">
            <path
               style="fill:#ff0000;fill-opacity:1;stroke:none;stroke-width:0.12710297;stroke-miterlimit:4;stroke-dasharray:none;stroke-opacity:1"
               d="m 92.478691,155.08948 v 3.07743 h 0.409557 v -1.2237 h 0.576566 l 1.029121,1.2237 h 0.531371 l -1.157552,-1.34551 c 0.19568,-0.0758 0.349194,-0.18797 0.460816,-0.3368 0.11162,-0.1502 0.167569,-0.33652 0.167569,-0.55838 0,-0.16399 -0.03197,-0.29903 -0.09536,-0.40514 -0.06201,-0.10748 -0.148553,-0.19594 -0.260173,-0.26624 -0.09922,-0.0621 -0.211117,-0.10503 -0.33514,-0.12843 -0.124021,-0.0248 -0.278638,-0.0369 -0.464674,-0.0369 z m 0.409557,0.35112 h 0.481205 c 0.110247,0 0.205886,0.008 0.287184,0.0248 0.08131,0.0152 0.151855,0.0427 0.211117,0.0827 0.07166,0.0469 0.122377,0.10473 0.152685,0.17363 0.0317,0.0675 0.04796,0.14552 0.04796,0.23372 0,0.11574 -0.01543,0.21138 -0.04575,0.28718 -0.02894,0.0744 -0.07414,0.14054 -0.136152,0.19844 -0.06752,0.0621 -0.149932,0.10503 -0.246391,0.12843 -0.09646,0.0221 -0.208915,0.0331 -0.338447,0.0331 H 92.88825 Z"
               id="path4187"
               inkscape:connector-curvature="0" />
            <path
               style="fill:#ff0000;fill-opacity:1;stroke:none;stroke-width:0.12710297;stroke-miterlimit:4;stroke-dasharray:none;stroke-opacity:1"
               d="m 102.55146,155.19469 h 0.38861 v 0.66352 h 0.80202 v 0.3266 h -0.80202 v 1.05213 c 0,0.12127 0.003,0.21635 0.008,0.28525 0.005,0.0675 0.0248,0.13092 0.0579,0.19017 0.0303,0.0551 0.0717,0.0958 0.12402,0.12196 0.0537,0.0248 0.13505,0.0372 0.24391,0.0372 0.0634,0 0.12954,-0.009 0.19844,-0.0269 0.0689,-0.0193 0.11851,-0.0351 0.14883,-0.0476 h 0.0207 v 0.34934 c -0.073,0.0193 -0.15296,0.0351 -0.23978,0.0475 -0.0854,0.0124 -0.16192,0.0186 -0.22944,0.0186 -0.23564,0 -0.41479,-0.0634 -0.53744,-0.19017 -0.12264,-0.12678 -0.18397,-0.33004 -0.18397,-0.60978 v -1.22783 h -0.26251 v -0.3266 h 0.26251 v -0.66352 z"
               id="path4185"
               inkscape:connector-curvature="0" />
            <path
               style="fill:#ff0000;fill-opacity:1;stroke:none;stroke-width:0.12710297;stroke-miterlimit:4;stroke-dasharray:none;stroke-opacity:1"
               d="m 96.251208,155.79393 c -0.336238,0 -0.607992,0.11107 -0.814695,0.33293 -0.20533,0.22187 -0.308128,0.52146 -0.308128,0.89903 0,0.38173 0.108037,0.67663 0.323011,0.88471 0.214966,0.20671 0.513733,0.31033 0.896826,0.31033 0.150207,0 0.293526,-0.0185 0.429948,-0.0557 0.136425,-0.0372 0.269822,-0.0838 0.400736,-0.13891 v -0.42333 h -0.0204 c -0.06753,0.0606 -0.181353,0.12236 -0.341201,0.18576 -0.158475,0.062 -0.315855,0.0932 -0.472946,0.0932 -0.118512,0 -0.22765,-0.0165 -0.326868,-0.0496 -0.09784,-0.0331 -0.182452,-0.0827 -0.254112,-0.14883 -0.07442,-0.0675 -0.133117,-0.15378 -0.175836,-0.25851 -0.04272,-0.10611 -0.06394,-0.23014 -0.06394,-0.37207 h 1.701049 v -0.21057 c 0,-0.33486 -0.08461,-0.59366 -0.254111,-0.77556 -0.168119,-0.18186 -0.407898,-0.27285 -0.719336,-0.27285 z m -0.02096,0.32081 c 0.206705,0 0.36077,0.0554 0.461369,0.16702 0.101966,0.11162 0.15349,0.26954 0.15489,0.47349 h -1.322914 c 0.01654,-0.18191 0.08626,-0.33432 0.208907,-0.45696 0.124018,-0.12267 0.289663,-0.18355 0.497748,-0.18355 z"
               id="path4181"
               inkscape:connector-curvature="0" />
            <path
               style="fill:#ff0000;fill-opacity:1;stroke:none;stroke-width:0.12710297;stroke-miterlimit:4;stroke-dasharray:none;stroke-opacity:1"
               d="m 100.98063,155.79393 c -0.33623,0 -0.60799,0.11107 -0.81469,0.33293 -0.20533,0.22187 -0.308126,0.52146 -0.308128,0.89903 0,0.38173 0.108037,0.67663 0.323008,0.88471 0.21497,0.20671 0.51373,0.31033 0.89683,0.31033 0.15021,0 0.29353,-0.0185 0.42995,-0.0557 0.13642,-0.0372 0.26982,-0.0838 0.40073,-0.13891 v -0.42333 h -0.0204 c -0.0675,0.0606 -0.18135,0.12236 -0.3412,0.18576 -0.15848,0.062 -0.31586,0.0932 -0.47295,0.0932 -0.11851,0 -0.22765,-0.0165 -0.32687,-0.0496 -0.0978,-0.0331 -0.18245,-0.0827 -0.25411,-0.14883 -0.0744,-0.0675 -0.13312,-0.15378 -0.17584,-0.25851 -0.0427,-0.10611 -0.0639,-0.23014 -0.0639,-0.37207 h 1.70105 v -0.21057 c 0,-0.33486 -0.0846,-0.59366 -0.25411,-0.77556 -0.16812,-0.18186 -0.4079,-0.27285 -0.71934,-0.27285 z m -0.0209,0.32081 c 0.20671,0 0.36022,0.0554 0.46082,0.16702 0.10197,0.11162 0.15405,0.26954 0.15545,0.47349 h -1.32292 c 0.0165,-0.18191 0.0863,-0.33432 0.20891,-0.45696 0.12402,-0.12267 0.28966,-0.18355 0.49774,-0.18355 z"
               id="path4179"
               inkscape:connector-curvature="0" />
            <path
               style="fill:#ff0000;fill-opacity:1;stroke:none;stroke-width:0.12710297;stroke-miterlimit:4;stroke-dasharray:none;stroke-opacity:1"
               d="m 98.601313,155.8024 c 0.137806,0 0.276987,0.0172 0.417547,0.0517 0.141939,0.0331 0.25976,0.0737 0.353468,0.12196 v 0.41547 h -0.02066 c -0.09922,-0.073 -0.2198,-0.13435 -0.361733,-0.18396 -0.141939,-0.051 -0.281123,-0.0765 -0.417547,-0.0765 -0.141938,0 -0.261829,0.0276 -0.359667,0.0827 -0.09784,0.0537 -0.146761,0.13436 -0.146761,0.24185 0,0.0951 0.02963,0.16674 0.08888,0.21497 0.05788,0.0482 0.151588,0.0875 0.28112,0.11782 0.07166,0.0165 0.151585,0.0331 0.239781,0.0496 0.08957,0.0165 0.163989,0.0317 0.22324,0.0455 0.180525,0.0414 0.319704,0.11232 0.417547,0.21291 0.09784,0.10198 0.146759,0.23703 0.146759,0.40516 0,0.21083 -0.08751,0.38378 -0.262517,0.51881 -0.17363,0.13506 -0.411345,0.20258 -0.713134,0.20258 -0.170876,0 -0.327975,-0.02 -0.471289,-0.0599 -0.141936,-0.0413 -0.261136,-0.0861 -0.357603,-0.13436 v -0.43614 h 0.02066 c 0.122645,0.0923 0.259074,0.16605 0.409276,0.22117 0.150206,0.0537 0.294211,0.0806 0.432017,0.0806 0.170875,0 0.304546,-0.0276 0.401007,-0.0827 0.09646,-0.0551 0.144696,-0.14194 0.144696,-0.26045 0,-0.0909 -0.02619,-0.15985 -0.07855,-0.2067 -0.05236,-0.0469 -0.152963,-0.0868 -0.301789,-0.11989 -0.05512,-0.0124 -0.127471,-0.0269 -0.217043,-0.0434 -0.08819,-0.0165 -0.168812,-0.0344 -0.241845,-0.0537 -0.202573,-0.0537 -0.346575,-0.1323 -0.432017,-0.23565 -0.08406,-0.10473 -0.126087,-0.23289 -0.126087,-0.38447 0,-0.0951 0.01929,-0.18466 0.05788,-0.26872 0.03996,-0.0841 0.09991,-0.15916 0.179832,-0.22531 0.07717,-0.0648 0.175011,-0.11575 0.293526,-0.15296 0.119888,-0.0386 0.253558,-0.0579 0.401005,-0.0579 z"
               id="path4177"
               inkscape:connector-curvature="0" />
          </g>
          <path
             inkscape:connector-curvature="0"
             id="path4169"
             d="m 40.178977,274.75684 h 0.43408 l 1.343589,2.8112 1.343586,-2.8112 h 0.434083 l -1.605071,3.32124 h -0.344683 z"
             style="fill:#ff0000;fill-opacity:1;stroke:#ff0000;stroke-width:0.2;stroke-miterlimit:4;stroke-dasharray:none;stroke-opacity:1" />
          <path
             inkscape:connector-curvature="0"
             id="path4167"
             d="m 33.609798,271.02318 v 0.43408 l -2.811199,1.34359 2.811199,1.34359 v 0.43408 l -3.321245,-1.60559 v -0.34468 z"
             style="fill:#ff0000;fill-opacity:1;stroke:#ff0000;stroke-width:0.2;stroke-miterlimit:4;stroke-dasharray:none;stroke-opacity:1" />
          <path
             inkscape:connector-curvature="0"
             id="path4165"
             d="m 48.921581,271.16347 c -0.212217,0 -0.408725,0.0358 -0.58925,0.10748 -0.179143,0.0717 -0.329627,0.1753 -0.450894,0.31033 -0.126779,0.14195 -0.223248,0.31283 -0.289386,0.51264 -0.06615,0.19843 -0.09922,0.42278 -0.09922,0.67358 0,0.25494 0.03307,0.48176 0.09922,0.6802 0.06752,0.19844 0.163709,0.36574 0.287733,0.50216 0.124024,0.13643 0.273954,0.24084 0.450343,0.31254 0.177767,0.0717 0.375103,0.10748 0.591454,0.10748 0.221864,0 0.418648,-0.035 0.590902,-0.10528 0.173633,-0.0703 0.324115,-0.17555 0.450894,-0.31474 0.122647,-0.13367 0.217459,-0.30013 0.284979,-0.49995 0.0689,-0.20119 0.103628,-0.42885 0.103628,-0.68241 0,-0.25355 -0.0339,-0.47983 -0.101423,-0.67965 -0.06615,-0.19981 -0.161781,-0.36875 -0.287184,-0.50657 -0.122645,-0.13366 -0.2723,-0.23642 -0.448689,-0.30812 -0.175011,-0.073 -0.372621,-0.10969 -0.593107,-0.10969 z m 0.0017,0.35387 c 0.31006,0 0.555075,0.10859 0.734219,0.32632 0.179147,0.21636 0.268443,0.52421 0.268443,0.92384 0,0.40377 -0.09095,0.71328 -0.272853,0.92825 -0.180522,0.2136 -0.423884,0.32025 -0.729809,0.32025 -0.305923,0 -0.54956,-0.10665 -0.731461,-0.32025 -0.181901,-0.21497 -0.272852,-0.52448 -0.272852,-0.92825 0,-0.39963 0.08902,-0.70748 0.266788,-0.92384 0.179138,-0.21773 0.424705,-0.32632 0.737518,-0.32632 z"
             style="fill:#ff0000;stroke:#ff0000;stroke-width:0.2;stroke-miterlimit:4;stroke-dasharray:none;stroke-opacity:1" />
          <path
             inkscape:connector-curvature="0"
             id="path4163"
             d="m 51.011134,271.22782 h 0.409278 v 1.6061 l 1.494482,-1.6061 h 0.496093 l -1.374592,1.44694 1.438672,1.6309 h -0.531234 l -1.217497,-1.37045 -0.305924,0.32659 v 1.04386 h -0.409278 z"
             style="fill:#ff0000;fill-opacity:1;stroke:#ff0000;stroke-width:0.2;stroke-miterlimit:4;stroke-dasharray:none;stroke-opacity:1" />
        </g>
      </g>
      <g
         transform="rotate(90,158.15811,-89.671755)"
         id="g4624">
        <path
           style="fill:none;fill-opacity:1;stroke:#000000;stroke-width:0.1;stroke-miterlimit:4;stroke-dasharray:none;stroke-opacity:1"
           d="m 458.8688,167.44198 a 10.05,10.05 0 0 1 9.98389,8.99997 h 0.96635 v 2.10013 h -0.95757 a 10.05,10.05 0 0 1 -9.99267,8.99996 10.05,10.05 0 0 1 -10.04951,-10.05003 10.05,10.05 0 0 1 10.04951,-10.05003 z"
           id="path4607"
           inkscape:connector-curvature="0" />
        <path
           style="fill:none;fill-opacity:1;stroke:#000000;stroke-width:0.1;stroke-miterlimit:4;stroke-dasharray:none;stroke-opacity:1"
           d="m 489.05094,172.53314 a 5.1977644,5.1974985 0 0 1 5.1971,5.19762 5.1977644,5.1974985 0 0 1 -5.1971,5.19761 5.1977644,5.1974985 0 0 1 -5.19814,-5.19761 5.1977644,5.1974985 0 0 1 5.19814,-5.19762 z"
           id="path4605"
           inkscape:connector-curvature="0" />
        <text
           xml:space="preserve"
           style="font-style:normal;font-weight:normal;font-size:5.81805182px;line-height:1.25;font-family:sans-serif;letter-spacing:0px;word-spacing:0px;display:inline;fill:#ff0000;fill-opacity:1;stroke:#ff0000;stroke-width:0.5;stroke-miterlimit:4;stroke-dasharray:none;stroke-opacity:1"
           x="353.84167"
           y="248.23363"
           id="text4579"
           transform="scale(1.3479427,0.7418713)"><tspan
             sodipodi:role="line"
             id="tspan4577"
             x="353.84167"
             y="248.23363"
             style="fill:#ff0000;fill-opacity:1;stroke:#ff0000;stroke-width:0.5;stroke-miterlimit:4;stroke-dasharray:none;stroke-opacity:1">-</tspan></text>
        <text
           xml:space="preserve"
           style="font-style:normal;font-weight:normal;font-size:4.23333311px;line-height:1.25;font-family:sans-serif;letter-spacing:0px;word-spacing:0px;display:inline;fill:#ff0000;fill-opacity:1;stroke:#ff0000;stroke-width:0.5;stroke-miterlimit:4;stroke-dasharray:none;stroke-opacity:1"
           x="497.27902"
           y="184.1315"
           id="text4583"><tspan
             sodipodi:role="line"
             id="tspan4581"
             x="497.27902"
             y="184.1315"
             style="fill:#ff0000;fill-opacity:1;stroke:#ff0000;stroke-width:0.5;stroke-miterlimit:4;stroke-dasharray:none;stroke-opacity:1">+</tspan></text>
      </g>
      <text
         transform="rotate(90)"
         id="text5057"
         y="91.605782"
         x="201.84605"
         style="font-style:normal;font-weight:normal;font-size:8.46666622px;line-height:100;font-family:sans-serif;letter-spacing:0px;word-spacing:0px;fill:#ff0000;fill-opacity:1;stroke:none;stroke-width:0.26458332"
         xml:space="preserve"><tspan
           style="font-size:7.76111126px;fill:#ff0000;fill-opacity:1;stroke-width:0.26458332"
           y="91.605782"
           x="201.84605"
           id="tspan5055"
           sodipodi:role="line">AGIT</tspan></text>
      <g
         aria-label="BierBox"
         transform="matrix(0,0.96065991,-1.0409511,0,0,0)"
         style="font-style:normal;font-weight:normal;font-size:32.14399719px;line-height:100;font-family:sans-serif;letter-spacing:-0.92689675px;word-spacing:0px;fill:#0000ff;fill-opacity:1;stroke:#0000f3;stroke-width:1.96500003;stroke-miterlimit:4;stroke-dasharray:none;stroke-opacity:1"
         id="text4831">
        <path
           d="m 158.39809,149.75041 q 0,1.69509 -0.6906,3.02919 -0.6749,1.33411 -1.86774,2.21304 -1.38119,1.03589 -3.04489,1.47536 -1.64801,0.43947 -4.19065,0.43947 h -10.20195 v -23.37032 h 9.07189 q 2.82516,0 4.12787,0.18835 1.3184,0.18834 2.60542,0.83185 1.3341,0.6749 1.97761,1.82065 0.6592,1.13007 0.6592,2.58973 0,1.69509 -0.89463,2.9978 -0.89464,1.28702 -2.52695,2.009 v 0.12557 q 2.29152,0.45516 3.62562,1.88343 1.3498,1.42828 1.3498,3.76688 z m -7.7221,-9.60553 q 0,-0.58073 -0.29821,-1.16145 -0.28251,-0.58073 -1.02019,-0.86325 -0.65921,-0.25112 -1.64801,-0.26682 -0.97311,-0.0314 -2.74668,-0.0314 h -0.56503 v 4.94403 h 0.94172 q 1.42827,0 2.43277,-0.0471 1.0045,-0.0471 1.58523,-0.31391 0.81615,-0.36099 1.06728,-0.92602 0.25112,-0.58073 0.25112,-1.3341 z m 1.47536,9.51136 q 0,-1.11437 -0.43947,-1.71079 -0.42377,-0.61212 -1.45966,-0.91033 -0.70629,-0.20404 -1.94622,-0.21973 -1.23993,-0.0157 -2.58973,-0.0157 h -1.3184 v 5.82296 h 0.43947 q 2.54264,0 3.64131,-0.0157 1.09867,-0.0157 2.02469,-0.40808 0.94172,-0.39239 1.28702,-1.03589 0.36099,-0.65921 0.36099,-1.50675 z"
           style="font-style:normal;font-variant:normal;font-weight:bold;font-stretch:normal;font-family:sans-serif;-inkscape-font-specification:'sans-serif Bold';letter-spacing:0.41453749px;fill:#0000ff;fill-opacity:1;stroke:#0000f3;stroke-width:1.96500003;stroke-miterlimit:4;stroke-dasharray:none;stroke-opacity:1"
           id="path4633" />
        <path
           d="m 168.63789,156.90747 h -5.65031 v -16.10078 h 5.65031 z m 0.15695,-20.13708 h -5.96422 v -4.28482 h 5.96422 z"
           style="font-style:normal;font-variant:normal;font-weight:bold;font-stretch:normal;font-family:sans-serif;-inkscape-font-specification:'sans-serif Bold';letter-spacing:0.41453749px;fill:#0000ff;fill-opacity:1;stroke:#0000f3;stroke-width:1.96500003;stroke-miterlimit:4;stroke-dasharray:none;stroke-opacity:1"
           id="path4635"
           inkscape:connector-curvature="0"
           sodipodi:nodetypes="cccccccccc" />
        <path
           d="m 191.74785,149.13829 h -12.93294 q 0.12556,2.07178 1.56953,3.17045 1.45967,1.09868 4.28482,1.09868 1.78927,0 3.46867,-0.64351 1.67939,-0.64351 2.6525,-1.38119 h 0.62782 v 4.53595 q -1.91483,0.76907 -3.60993,1.11436 -1.69509,0.3453 -3.75117,0.3453 -5.30502,0 -8.13018,-2.38569 -2.82515,-2.38568 -2.82515,-6.79607 0,-4.36329 2.6682,-6.90593 2.6839,-2.55834 7.34541,-2.55834 4.30051,0 6.46646,2.18165 2.16596,2.16595 2.16596,6.24673 z m -5.61892,-3.31171 q -0.0471,-1.77357 -0.87894,-2.6682 -0.83185,-0.89463 -2.58973,-0.89463 -1.63231,0 -2.6839,0.84754 -1.05158,0.84755 -1.17714,2.71529 z"
           style="font-style:normal;font-variant:normal;font-weight:bold;font-stretch:normal;font-family:sans-serif;-inkscape-font-specification:'sans-serif Bold';letter-spacing:0.41453749px;fill:#0000ff;fill-opacity:1;stroke:#0000f3;stroke-width:1.96500003;stroke-miterlimit:4;stroke-dasharray:none;stroke-opacity:1"
           id="path4637" />
        <path
           d="m 208.92498,144.66513 h -0.50225 q -0.361,-0.12556 -1.16146,-0.18835 -0.80046,-0.0628 -1.3341,-0.0628 -1.20854,0 -2.13456,0.15696 -0.92602,0.15695 -1.99331,0.53364 v 11.80287 h -5.65031 v -17.62583 h 5.65031 v 2.58972 q 1.86775,-1.60092 3.24893,-2.11886 1.38119,-0.53364 2.54264,-0.53364 0.29821,0 0.6749,0.0157 0.37669,0.0157 0.65921,0.0471 z"
           style="font-style:normal;font-variant:normal;font-weight:bold;font-stretch:normal;font-family:sans-serif;-inkscape-font-specification:'sans-serif Bold';letter-spacing:0.41453749px;fill:#0000ff;fill-opacity:1;stroke:#0000f3;stroke-width:1.96500003;stroke-miterlimit:4;stroke-dasharray:none;stroke-opacity:1"
           id="path4639" />
        <path
           d="m 232.88248,149.75041 q 0,1.69509 -0.69059,3.02919 -0.6749,1.33411 -1.86774,2.21304 -1.38119,1.03589 -3.04489,1.47536 -1.64801,0.43947 -4.19065,0.43947 h -10.20195 v -23.37032 h 9.07189 q 2.82515,0 4.12786,0.18835 1.31841,0.18834 2.60543,0.83185 1.3341,0.6749 1.97761,1.82065 0.6592,1.13007 0.6592,2.58973 0,1.69509 -0.89463,2.9978 -0.89464,1.28702 -2.52695,2.009 v 0.12557 q 2.29152,0.45516 3.62562,1.88343 1.34979,1.42828 1.34979,3.76688 z m -7.72209,-9.60553 q 0,-0.58073 -0.29821,-1.16145 -0.28252,-0.58073 -1.0202,-0.86325 -0.6592,-0.25112 -1.648,-0.26682 -0.97311,-0.0314 -2.74668,-0.0314 h -0.56503 v 4.94403 h 0.94172 q 1.42827,0 2.43277,-0.0471 1.0045,-0.0471 1.58522,-0.31391 0.81616,-0.36099 1.06729,-0.92602 0.25112,-0.58073 0.25112,-1.3341 z m 1.47536,9.51136 q 0,-1.11437 -0.43947,-1.71079 -0.42377,-0.61212 -1.45966,-0.91033 -0.70629,-0.20404 -1.94622,-0.21973 -1.23993,-0.0157 -2.58973,-0.0157 h -1.3184 v 5.82296 h 0.43947 q 2.54264,0 3.64131,-0.0157 1.09867,-0.0157 2.02469,-0.40808 0.94172,-0.39239 1.28702,-1.03589 0.36099,-0.65921 0.36099,-1.50675 z"
           style="font-style:normal;font-variant:normal;font-weight:bold;font-stretch:normal;font-family:sans-serif;-inkscape-font-specification:'sans-serif Bold';letter-spacing:0.41453749px;fill:#0000ff;fill-opacity:1;stroke:#0000f3;stroke-width:1.96500003;stroke-miterlimit:4;stroke-dasharray:none;stroke-opacity:1"
           id="path4641" />
        <path
           d="m 255.49019,148.1024 q 0,4.3476 -2.54264,6.85885 -2.52694,2.49556 -7.10997,2.49556 -4.58304,0 -7.12568,-2.49556 -2.52694,-2.51125 -2.52694,-6.85885 0,-4.37899 2.54264,-6.87455 2.55834,-2.49555 7.10998,-2.49555 4.61442,0 7.12567,2.51125 2.52694,2.51125 2.52694,6.85885 z m -6.95302,4.28482 q 0.54934,-0.6749 0.81616,-1.61662 0.28251,-0.95741 0.28251,-2.63681 0,-1.55383 -0.28251,-2.60542 -0.28252,-1.05159 -0.78477,-1.6794 -0.50225,-0.64351 -1.20854,-0.91033 -0.70629,-0.26682 -1.52244,-0.26682 -0.81616,0 -1.45967,0.21974 -0.62781,0.21973 -1.20854,0.87894 -0.51794,0.61211 -0.83185,1.67939 -0.29821,1.06728 -0.29821,2.6839 0,1.44397 0.26682,2.51125 0.26682,1.05159 0.78477,1.6951 0.50225,0.61211 1.19284,0.89463 0.70629,0.28251 1.60092,0.28251 0.76907,0 1.45967,-0.25112 0.70628,-0.26682 1.19284,-0.87894 z"
           style="font-style:normal;font-variant:normal;font-weight:bold;font-stretch:normal;font-family:sans-serif;-inkscape-font-specification:'sans-serif Bold';letter-spacing:0.41453749px;fill:#0000ff;fill-opacity:1;stroke:#0000f3;stroke-width:1.96500003;stroke-miterlimit:4;stroke-dasharray:none;stroke-opacity:1"
           id="path4643" />
        <path
           d="m 278.4118,156.90747 h -6.59203 l -3.76687,-5.27362 -3.86105,5.27362 h -6.46647 l 6.95303,-8.80507 -6.84316,-8.82076 h 6.59203 l 3.7041,5.17945 3.71978,-5.17945 h 6.48217 l -6.85885,8.6795 z"
           style="font-style:normal;font-variant:normal;font-weight:bold;font-stretch:normal;font-family:sans-serif;-inkscape-font-specification:'sans-serif Bold';letter-spacing:0.41453749px;fill:#0000ff;fill-opacity:1;stroke:#0000f3;stroke-width:1.96500003;stroke-miterlimit:4;stroke-dasharray:none;stroke-opacity:1"
           id="path4645" />
      </g>
      <text
         transform="rotate(90)"
         xml:space="preserve"
         style="font-style:normal;font-weight:normal;font-size:8.46666622px;line-height:100;font-family:sans-serif;letter-spacing:0px;word-spacing:0px;fill:#ff0000;fill-opacity:1;stroke:none;stroke-width:0.26458332"
         x="137.14679"
         y="117.01073"
         id="text4804"><tspan
           sodipodi:role="line"
           id="tspan4802"
           x="137.14679"
           y="117.01073"
           style="font-size:7.76111126px;fill:#ff0000;fill-opacity:1;stroke-width:0.26458332">COOL</tspan></text>
      <path
         inkscape:connector-curvature="0"
         id="path4609"
         d="m -108.67829,171.83223 a 5.1999999,5.1999999 0 0 1 -5.2002,5.20019 5.1999999,5.1999999 0 0 1 -5.19969,-5.20019 5.1999999,5.1999999 0 0 1 5.19969,-5.19969 5.1999999,5.1999999 0 0 1 5.2002,5.19969 z"
         style="fill:none;fill-opacity:1;stroke:#000000;stroke-width:0.1;stroke-miterlimit:4;stroke-dasharray:none;stroke-opacity:1" />
      <path
         inkscape:connector-curvature="0"
         id="path4587"
         d="m -84.32829,171.83223 a 5.1999999,5.1999999 0 0 1 -5.20019,5.20019 5.1999999,5.1999999 0 0 1 -5.19969,-5.20019 5.1999999,5.1999999 0 0 1 5.19969,-5.19969 5.1999999,5.1999999 0 0 1 5.20019,5.19969 z"
         style="fill:none;fill-opacity:1;stroke:#000000;stroke-width:0.1;stroke-miterlimit:4;stroke-dasharray:none;stroke-opacity:1" />
      <text
         transform="rotate(90)"
         id="text4808"
         y="91.778206"
         x="136.82463"
         style="font-style:normal;font-weight:normal;font-size:8.46666622px;line-height:100;font-family:sans-serif;letter-spacing:0px;word-spacing:0px;fill:#ff0000;fill-opacity:1;stroke:none;stroke-width:0.26458332"
         xml:space="preserve"><tspan
           style="font-style:normal;font-variant:normal;font-weight:normal;font-stretch:normal;font-size:7.76111126px;font-family:sans-serif;-inkscape-font-specification:sans-serif;fill:#ff0000;fill-opacity:1;stroke-width:0.26458332"
           y="91.778206"
           x="136.82463"
           id="tspan4806"
           sodipodi:role="line">HEAT</tspan></text>
      <circle
         transform="rotate(90)"
         r="9.4499998"
         cy="26.159248"
         cx="250.49506"
         id="path4626"
         style="fill:none;fill-opacity:1;stroke:#000000;stroke-width:0.09999999;stroke-miterlimit:4;stroke-dasharray:none;stroke-opacity:1" />
      <text
         transform="rotate(90)"
         id="text4660"
         y="54.991951"
         x="244.86124"
         style="font-style:normal;font-weight:normal;font-size:8.46666622px;line-height:100;font-family:sans-serif;letter-spacing:0px;word-spacing:0px;fill:#ff0000;fill-opacity:1;stroke:none;stroke-width:0.26458332"
         xml:space="preserve"><tspan
           style="font-size:4.23333311px;fill:#ff0000;fill-opacity:1;stroke-width:0.26458332"
           y="54.991951"
           x="244.86124"
           id="tspan4658"
           sodipodi:role="line">TEMP</tspan></text>
      <path
         style="fill:none;fill-opacity:1;stroke:#000000;stroke-width:0.1;stroke-miterlimit:4;stroke-dasharray:none;stroke-opacity:1"
         d="m -60.401253,250.77398 a 4.4500512,4.4500512 0 0 1 -4.450214,4.45022 4.4500512,4.4500512 0 0 1 -4.449786,-4.45022 4.4500512,4.4500512 0 0 1 4.449786,-4.44978 4.4500512,4.4500512 0 0 1 4.450214,4.44978 z"
         id="path4662"
         inkscape:connector-curvature="0" />
      <text
         transform="rotate(90)"
         xml:space="preserve"
         style="font-style:normal;font-weight:normal;font-size:8.46666622px;line-height:100;font-family:sans-serif;letter-spacing:0px;word-spacing:0px;fill:#ff0000;fill-opacity:1;stroke:none;stroke-width:0.26458332"
         x="244.99432"
         y="11.997169"
         id="text4666"><tspan
           sodipodi:role="line"
           id="tspan4664"
           x="244.99432"
           y="11.997169"
           style="font-size:4.23333311px;fill:#ff0000;fill-opacity:1;stroke-width:0.26458332">STIR</tspan></text>
      <g
         transform="rotate(90,134.55507,-105.56658)"
         id="g4767">
        <text
           transform="scale(0.96883782,1.0321645)"
           xml:space="preserve"
           style="font-style:normal;font-weight:normal;font-size:3.27712226px;line-height:1;font-family:sans-serif;letter-spacing:0px;word-spacing:0px;fill:#ff0000;fill-opacity:1;stroke:none;stroke-width:0.26458332"
           x="278.55972"
           y="40.929817"
           id="text4766"><tspan
             sodipodi:role="line"
             id="tspan4764"
             x="278.55972"
             y="40.929817"
             style="fill:#ff0000;fill-opacity:1;stroke-width:0.26458332">I. WIFI AND DATALOGGING:  </tspan><tspan
             id="tspan4568"
             sodipodi:role="line"
             x="278.55972"
             y="44.20694"
             style="fill:#ff0000;fill-opacity:1;stroke-width:0.26458332">    1. go to thingspeak.com</tspan><tspan
             sodipodi:role="line"
             x="278.55972"
             y="47.484062"
             style="fill:#ff0000;fill-opacity:1;stroke-width:0.26458332"
             id="tspan4768">    2. create account</tspan><tspan
             sodipodi:role="line"
             x="278.55972"
             y="50.761185"
             style="fill:#ff0000;fill-opacity:1;stroke-width:0.26458332"
             id="tspan4770">    3. create a channel</tspan><tspan
             sodipodi:role="line"
             x="278.55972"
             y="54.038307"
             style="fill:#ff0000;fill-opacity:1;stroke-width:0.26458332"
             id="tspan4772">    4. check field 1, 2 and &quot;show status&quot; </tspan><tspan
             sodipodi:role="line"
             x="278.55972"
             y="57.31543"
             style="fill:#ff0000;fill-opacity:1;stroke-width:0.26458332"
             id="tspan4648">        in the channel settings</tspan><tspan
             id="tspan4592"
             sodipodi:role="line"
             x="278.55972"
             y="60.592552"
             style="fill:#ff0000;fill-opacity:1;stroke-width:0.26458332">    5. write the following down:</tspan><tspan
             sodipodi:role="line"
             x="278.55972"
             y="63.869675"
             style="fill:#ff0000;fill-opacity:1;stroke-width:0.26458332"
             id="tspan4774">        - channel ID</tspan><tspan
             sodipodi:role="line"
             x="278.55972"
             y="67.146797"
             style="fill:#ff0000;fill-opacity:1;stroke-width:0.26458332"
             id="tspan4778">        - write API key</tspan><tspan
             sodipodi:role="line"
             x="278.55972"
             y="70.42392"
             style="fill:#ff0000;fill-opacity:1;stroke-width:0.26458332"
             id="tspan4668">        - read API key</tspan><tspan
             sodipodi:role="line"
             x="278.55972"
             y="73.701042"
             style="fill:#ff0000;fill-opacity:1;stroke-width:0.26458332"
             id="tspan4776">        - user key</tspan><tspan
             sodipodi:role="line"
             x="278.55972"
             y="76.978165"
             style="fill:#ff0000;fill-opacity:1;stroke-width:0.26458332"
             id="tspan4780">    6. plug in BierBox</tspan><tspan
             sodipodi:role="line"
             x="278.55972"
             y="80.255287"
             style="fill:#ff0000;fill-opacity:1;stroke-width:0.26458332"
             id="tspan4782">    7. BierBox will create a WiFi AccessPoint for four minutes</tspan><tspan
             sodipodi:role="line"
             x="278.55972"
             y="83.53241"
             style="fill:#ff0000;fill-opacity:1;stroke-width:0.26458332"
             id="tspan4800">    8. connect to the BierBox via an internet device</tspan><tspan
             sodipodi:role="line"
             x="278.55972"
             y="86.809532"
             style="fill:#ff0000;fill-opacity:1;stroke-width:0.26458332"
             id="tspan4784">        - SSID: BierBox</tspan><tspan
             sodipodi:role="line"
             x="278.55972"
             y="90.086655"
             style="fill:#ff0000;fill-opacity:1;stroke-width:0.26458332"
             id="tspan4786">        - PWD: anno1516</tspan><tspan
             sodipodi:role="line"
             x="278.55972"
             y="93.36377"
             style="fill:#ff0000;fill-opacity:1;stroke-width:0.26458332"
             id="tspan4788">    9. WiFiManager website pops up</tspan><tspan
             sodipodi:role="line"
             x="278.55972"
             y="96.640892"
             style="fill:#ff0000;fill-opacity:1;stroke-width:0.26458332"
             id="tspan4790">  10. choose your WiFi</tspan><tspan
             sodipodi:role="line"
             x="278.55972"
             y="99.918015"
             style="fill:#ff0000;fill-opacity:1;stroke-width:0.26458332"
             id="tspan4794">  11. enter your Wifi and thingspeak.com credentials</tspan><tspan
             sodipodi:role="line"
             x="278.55972"
             y="103.19514"
             style="fill:#ff0000;fill-opacity:1;stroke-width:0.26458332"
             id="tspan4798">  12. click save</tspan><tspan
             id="tspan4570"
             sodipodi:role="line"
             x="278.55972"
             y="106.47226"
             style="fill:#ff0000;fill-opacity:1;stroke-width:0.26458332" /><tspan
             id="tspan4584"
             sodipodi:role="line"
             x="278.55972"
             y="109.74938"
             style="fill:#ff0000;fill-opacity:1;stroke-width:0.26458332"> </tspan></text>
        <text
           xml:space="preserve"
           style="font-style:normal;font-weight:normal;font-size:3.17499995px;line-height:1;font-family:sans-serif;letter-spacing:0px;word-spacing:0px;fill:#ff0000;fill-opacity:1;stroke:none;stroke-width:0.26458332"
           x="363.99106"
           y="42.119942"
           id="text4707"><tspan
             sodipodi:role="line"
             id="tspan4705"
             x="363.99106"
             y="42.119942"
             style="fill:#ff0000;fill-opacity:1;stroke-width:0.26458332">II. WEBINTERFACE:</tspan><tspan
             sodipodi:role="line"
             x="363.99106"
             y="45.294941"
             style="fill:#ff0000;fill-opacity:1;stroke-width:0.26458332"
             id="tspan4709">    1. plug in Bier Box</tspan><tspan
             sodipodi:role="line"
             x="363.99106"
             y="48.46994"
             style="fill:#ff0000;fill-opacity:1;stroke-width:0.26458332"
             id="tspan4711">    2. go to STATUS</tspan><tspan
             sodipodi:role="line"
             x="363.99106"
             y="51.644943"
             style="fill:#ff0000;fill-opacity:1;stroke-width:0.26458332"
             id="tspan4715">    3. write down the IP address</tspan><tspan
             sodipodi:role="line"
             x="363.99106"
             y="54.819942"
             style="fill:#ff0000;fill-opacity:1;stroke-width:0.26458332"
             id="tspan4717">    4. enter the IP address into a browser's address bar</tspan><tspan
             sodipodi:role="line"
             x="363.99106"
             y="57.994942"
             style="fill:#ff0000;fill-opacity:1;stroke-width:0.26458332"
             id="tspan4719">        (internet device and BierBox must be in the same network)</tspan><tspan
             sodipodi:role="line"
             x="363.99106"
             y="61.169941"
             style="fill:#ff0000;fill-opacity:1;stroke-width:0.26458332"
             id="tspan4721">    5. controll the BierBox via the browser</tspan></text>
      </g>
    </g>
    <g
       id="g4694"
       transform="rotate(180,234.47575,63.926505)">
      <path
         inkscape:connector-curvature="0"
         id="path4687"
         d="m 176.91666,24.198543 v 3.10007 h -2.89957 l 24.89979,24.89978 v -2.9001 h 2.99981 v -4.9997 -9.90015 h -2.99981 v -7.09983 h -7.09983 v -3.00138 -0.0987 z"
         style="fill:none;fill-opacity:1;stroke:#000000;stroke-width:0.1;stroke-miterlimit:4;stroke-dasharray:none;stroke-opacity:1" />
      <path
         inkscape:connector-curvature="0"
         id="path4838"
         d="m 190.91633,33.849113 a 1.45,1.45 0 0 1 1.45004,1.45005 1.45,1.45 0 0 1 -1.45004,1.44952 1.45,1.45 0 0 1 -1.45004,-1.44952 1.45,1.45 0 0 1 1.45004,-1.45005 z"
         style="fill:none;fill-opacity:1;stroke:#000000;stroke-width:0.1;stroke-miterlimit:4;stroke-dasharray:none;stroke-opacity:1" />
    </g>
    <g
       id="g4638"
       transform="rotate(90,91.223657,308.17152)">
      <path
         inkscape:connector-curvature="0"
         id="rect4971"
         d="m -72.25453,51.92601 v 2.9001 h -19.90008 v 0.0997 11.99978 h 2.90009 v 20.00033 h -2.90009 V 106.826 h 2.90009 v 20.09955 h -2.90009 v 19.90008 h 2.90009 v 20.30004 h -2.90009 v 19.90008 h 2.90009 v 19.99983 h -2.90009 v 11.90003 h 19.90008 v 2.9001 h 20.10007 v -2.9001 h 19.90008 v 2.9001 h 20.10007 v -2.9001 h 19.2381 0.66146 4.89996 V 207.02558 H 7.74525 7.08379 4.84517 v -20.1998 H 7.74525 V 166.9257 H 4.84517 V 146.82563 H 7.74525 V 126.92557 H 4.84517 V 106.82602 H 7.74525 V 86.92594 H 4.84517 V 66.92561 h 2.90008 4.89996 V 54.82611 H 7.74525 -12.15431 v -2.9001 h -20.10007 v 2.9001 h -19.90008 v -2.9001 z"
         style="fill:none;fill-opacity:1;stroke:#000000;stroke-width:0.1;stroke-miterlimit:4;stroke-dasharray:none;stroke-opacity:1" />
      <rect
         transform="rotate(90)"
         style="fill:none;fill-opacity:1;stroke:#000000;stroke-width:0.1;stroke-miterlimit:4;stroke-dasharray:none;stroke-opacity:1"
         id="rect4631"
         width="14.900001"
         height="3.1000001"
         x="196.92599"
         y="-1.6451699" />
      <rect
         y="-1.6451699"
         x="61.925999"
         height="3.1000001"
         width="14.900001"
         id="rect4633"
         style="fill:none;fill-opacity:1;stroke:#000000;stroke-width:0.1;stroke-miterlimit:4;stroke-dasharray:none;stroke-opacity:1"
         transform="rotate(90)" />
    </g>
    <g
       id="g4645"
       transform="translate(255.62098,-93.487209)">
      <path
         inkscape:connector-curvature="0"
         style="fill:none;fill-opacity:1;stroke:#000000;stroke-width:0.10000001;stroke-miterlimit:4;stroke-dasharray:none;stroke-opacity:1"
         d="m -338.85424,323.82514 v -4.89996 -0.66818 -19.33162 h 2.90007 V 279.0253 h -2.90007 v -20.10006 h 2.90007 v -19.89956 h -2.90007 v -20.00034 h 2.79982 11.99981 v 2.90009 h 20.00033 v -2.90009 h 19.90005 v 2.90009 h 20.09956 v -2.90009 h 19.90008 v 2.90009 h 20.10005 v -2.90009 h 19.90008 v 2.90009 h 20.10006 v -2.90009 h 19.90008 v 2.90009 h 20.10006 v -2.90009 h 19.89956 v 2.90009 h 20.20032 v -2.90009 h 11.99979 3.00033 v 20.00034 h -2.90008 v 19.89956 h 2.90008 v 20.10006 h -2.90008 v 19.90008 h 2.90008 v 19.9998 4.89996 h -15.00012 v -4.89996 -2.90008 h -20.00033 v 2.90008 h -19.89956 v -2.90008 h -20.10006 v 2.90008 h -19.90008 v -2.90008 h -20.10006 v 2.90008 h -19.90008 v -2.90008 h -20.10006 v 2.90008 h -19.90007 v -2.90008 h -20.09955 v 2.90008 h -19.90008 v -2.90008 h -20.2003 v 2.2319 0.66818 4.89996 z"
         id="path5105" />
      <rect
         y="309.7251"
         x="-113.85438"
         height="3.1000001"
         width="14.900001"
         id="rect4576"
         style="fill:none;fill-opacity:1;stroke:#000000;stroke-width:0.1;stroke-miterlimit:4;stroke-dasharray:none;stroke-opacity:1" />
      <rect
         style="fill:none;fill-opacity:1;stroke:#000000;stroke-width:0.1;stroke-miterlimit:4;stroke-dasharray:none;stroke-opacity:1"
         id="rect4640"
         width="14.900001"
         height="3.1000001"
         x="-328.89999"
         y="309.7251" />
    </g>
    <g
       id="g4656"
       transform="rotate(90,2.65415,397.37974)">
      <g
         transform="translate(-18.69425,-216.65718)"
         id="g5275">
        <path
           id="path5107"
           d="m -337.46026,268.58318 v 2.9001 h 19.90008 v 0.0997 11.99978 h -2.90008 v 20.00033 h 2.90008 v 19.90008 h -2.90008 v 20.09955 h 2.90008 v 19.90008 h -2.90008 v 20.30005 h 2.90008 v 19.90008 h -2.90008 v 19.99983 h 2.90008 v 11.90003 h -19.90008 v 2.9001 h -20.10006 v -2.9001 h -19.90008 v 2.9001 h -20.10006 v -2.9001 h -19.2381 -0.66146 -4.89996 v -11.90003 h 4.89996 0.66146 2.23862 v -20.1998 h -2.90008 v -19.90008 h 2.90008 V 363.4828 h -2.90008 v -19.90008 h 2.90008 v -20.09955 h -2.90008 v -19.90008 h 2.90008 v -20.00033 h -2.90008 -4.89996 v -12.0995 h 4.89996 19.89956 v -2.9001 h 20.10006 v 2.9001 h 19.90008 v -2.9001 z"
           style="fill:none;fill-opacity:1;stroke:#000000;stroke-width:0.1;stroke-miterlimit:4;stroke-dasharray:none;stroke-opacity:1"
           inkscape:connector-curvature="0" />
        <circle
           r="9.4499998"
           cy="314.24829"
           cx="-385.86481"
           id="circle5189"
           style="fill:none;fill-opacity:1;stroke:#000000;stroke-width:0.09999999;stroke-miterlimit:4;stroke-dasharray:none;stroke-opacity:1" />
      </g>
      <rect
         y="196.92599"
         x="-430.05414"
         height="14.9"
         width="3.0999999"
         id="rect4647"
         style="fill:none;fill-opacity:1;stroke:#000000;stroke-width:0.09999999;stroke-miterlimit:4;stroke-dasharray:none;stroke-opacity:1" />
      <rect
         style="fill:none;fill-opacity:1;stroke:#000000;stroke-width:0.09999999;stroke-miterlimit:4;stroke-dasharray:none;stroke-opacity:1"
         id="rect4649"
         width="3.0999999"
         height="14.9"
         x="-430.05417"
         y="61.925999" />
    </g>
    <g
       id="g4683">
      <g
         transform="rotate(-90,-102.44212,261.03811)"
         id="g4861">
        <g
           id="g5454"
           transform="rotate(90,15.233665,360.01942)">
          <g
             transform="rotate(45.064507,-246.41018,221.50417)"
             id="g5063">
            <path
               style="fill:none;fill-opacity:1;stroke:#000000;stroke-width:0.1;stroke-miterlimit:4;stroke-dasharray:none;stroke-opacity:1"
               d="m -246.41044,199.55435 a 21.949997,21.949997 0 0 1 21.95008,21.95008 21.949997,21.949997 0 0 1 -21.95008,21.94957 21.949997,21.949997 0 0 1 -21.94956,-21.94957 21.949997,21.949997 0 0 1 21.94956,-21.95008 z"
               id="path4595"
               inkscape:connector-curvature="0" />
            <path
               style="fill:none;fill-opacity:1;stroke:#000000;stroke-width:0.1;stroke-miterlimit:4;stroke-dasharray:none;stroke-opacity:1"
               d="m -265.91002,200.55429 a 1.4499996,1.4499995 0 0 1 1.45004,1.45004 1.4499996,1.4499995 0 0 1 -1.45004,1.45004 1.4499996,1.4499995 0 0 1 -1.45004,-1.45004 1.4499996,1.4499995 0 0 1 1.45004,-1.45004 z"
               id="path4593"
               inkscape:connector-curvature="0" />
            <path
               style="fill:none;fill-opacity:1;stroke:#000000;stroke-width:0.1;stroke-miterlimit:4;stroke-dasharray:none;stroke-opacity:1"
               d="m -226.91034,200.55429 a 1.4499997,1.4499996 0 0 1 1.45004,1.45004 1.4499997,1.4499996 0 0 1 -1.45004,1.45004 1.4499997,1.4499996 0 0 1 -1.45004,-1.45004 1.4499997,1.4499996 0 0 1 1.45004,-1.45004 z"
               id="path4591"
               inkscape:connector-curvature="0" />
            <path
               style="fill:none;fill-opacity:1;stroke:#000000;stroke-width:0.1;stroke-miterlimit:4;stroke-dasharray:none;stroke-opacity:1"
               d="m -265.91002,239.55399 a 1.4499997,1.4499996 0 0 1 1.45004,1.45002 1.4499997,1.4499996 0 0 1 -1.45004,1.45005 1.4499997,1.4499996 0 0 1 -1.45004,-1.45005 1.4499997,1.4499996 0 0 1 1.45004,-1.45002 z"
               id="path4571"
               inkscape:connector-curvature="0" />
            <path
               style="fill:none;fill-opacity:1;stroke:#000000;stroke-width:0.1;stroke-miterlimit:4;stroke-dasharray:none;stroke-opacity:1"
               d="m -226.91034,239.55399 a 1.4499997,1.4499996 0 0 1 1.45004,1.45002 1.4499997,1.4499996 0 0 1 -1.45004,1.45005 1.4499997,1.4499996 0 0 1 -1.45004,-1.45005 1.4499997,1.4499996 0 0 1 1.45004,-1.45002 z"
               id="rect4485"
               inkscape:connector-curvature="0" />
          </g>
          <g
             transform="rotate(44.941984,78.641472,-560.35196)"
             id="g4593">
            <path
               style="fill:none;fill-opacity:1;stroke:#000000;stroke-width:0.1;stroke-miterlimit:4;stroke-dasharray:none;stroke-opacity:1"
               d="m 468.8083,132.91411 a 21.949995,21.949995 0 0 1 21.95008,21.95008 21.949995,21.949995 0 0 1 -21.95008,21.94957 21.949995,21.949995 0 0 1 -21.94956,-21.94957 21.949995,21.949995 0 0 1 21.94956,-21.95008 z"
               id="path4615"
               inkscape:connector-curvature="0" />
            <path
               style="fill:none;fill-opacity:1;stroke:#000000;stroke-width:0.1;stroke-miterlimit:4;stroke-dasharray:none;stroke-opacity:1"
               d="m 449.30872,133.91405 a 1.4499995,1.4499994 0 0 1 1.45004,1.45004 1.4499995,1.4499994 0 0 1 -1.45004,1.45004 1.4499995,1.4499994 0 0 1 -1.45004,-1.45004 1.4499995,1.4499994 0 0 1 1.45004,-1.45004 z"
               id="path4613"
               inkscape:connector-curvature="0" />
            <path
               style="fill:none;fill-opacity:1;stroke:#000000;stroke-width:0.1;stroke-miterlimit:4;stroke-dasharray:none;stroke-opacity:1"
               d="m 488.3084,133.91405 a 1.4499995,1.4499994 0 0 1 1.45004,1.45004 1.4499995,1.4499994 0 0 1 -1.45004,1.45004 1.4499995,1.4499994 0 0 1 -1.45004,-1.45004 1.4499995,1.4499994 0 0 1 1.45004,-1.45004 z"
               id="path4611"
               inkscape:connector-curvature="0" />
            <path
               style="fill:none;fill-opacity:1;stroke:#000000;stroke-width:0.1;stroke-miterlimit:4;stroke-dasharray:none;stroke-opacity:1"
               d="m 449.30872,172.91374 a 1.4499996,1.4499995 0 0 1 1.45004,1.45004 1.4499996,1.4499995 0 0 1 -1.45004,1.45004 1.4499996,1.4499995 0 0 1 -1.45004,-1.45004 1.4499996,1.4499995 0 0 1 1.45004,-1.45004 z"
               id="path4603"
               inkscape:connector-curvature="0" />
            <path
               style="fill:none;fill-opacity:1;stroke:#000000;stroke-width:0.1;stroke-miterlimit:4;stroke-dasharray:none;stroke-opacity:1"
               d="m 488.3084,172.91374 a 1.4499995,1.4499994 0 0 1 1.45004,1.45004 1.4499995,1.4499994 0 0 1 -1.45004,1.45004 1.4499995,1.4499994 0 0 1 -1.45004,-1.45004 1.4499995,1.4499994 0 0 1 1.45004,-1.45004 z"
               id="path4601"
               inkscape:connector-curvature="0" />
          </g>
          <path
             transform="scale(0.26458333)"
             id="rect4963"
             d="m -1210.8086,630.36133 v 18.51953 2.52539 73.06445 h 10.9609 v 75.21289 h -10.9609 v 75.96875 h 10.9609 v 75.21094 h -10.9609 v 75.59182 h 10.582 45.3536 v -10.961 h 75.5918 v 10.961 h 75.2128 v -10.961 h 75.96684 v 10.961 h 75.21289 v -10.961 h 75.96875 v 10.961 h 75.21289 v -10.961 h 75.96875 v 10.961 h 75.21289 v -10.961 h 75.96875 v 10.961 h 75.21094 v -10.961 h 76.34765 v 10.961 h 45.35352 11.33984 v -75.59182 h -10.96093 v -75.21094 h 10.96093 v -75.96875 h -10.96093 V 724.4707 h 10.96093 v -75.58984 -18.51953 h -56.69336 v 18.51953 10.96094 h -75.59179 v -10.96094 h -75.21094 v 10.96094 h -75.96875 v -10.96094 h -75.21289 v 10.96094 h -75.96875 v -10.96094 h -75.21289 v 10.96094 h -75.96875 v -10.96094 h -75.21289 v 10.96094 h -75.9668 v -10.96094 h -75.2129 v 10.96094 h -76.3476 v -8.43555 -2.52539 -18.51953 z"
             style="fill:none;fill-opacity:1;stroke:#000000;stroke-width:0.37795278;stroke-miterlimit:4;stroke-dasharray:none;stroke-opacity:1"
             inkscape:connector-curvature="0" />
        </g>
        <text
           transform="rotate(-135)"
           id="text4714"
           y="-61.487457"
           x="-256.81339"
           style="font-style:normal;font-weight:normal;font-size:8.46666622px;line-height:100;font-family:sans-serif;letter-spacing:0px;word-spacing:0px;fill:#ff0000;fill-opacity:1;stroke:none;stroke-width:0.26458332"
           xml:space="preserve"><tspan
             style="font-style:normal;font-variant:normal;font-weight:normal;font-stretch:normal;font-size:7.76111126px;font-family:sans-serif;-inkscape-font-specification:sans-serif;fill:#ff0000;fill-opacity:1;stroke-width:0.26458332"
             y="-61.487457"
             x="-256.81339"
             id="tspan4712"
             sodipodi:role="line">HEAT</tspan></text>
        <text
           transform="rotate(-135)"
           xml:space="preserve"
           style="font-style:normal;font-weight:normal;font-size:8.46666622px;line-height:100;font-family:sans-serif;letter-spacing:0px;word-spacing:0px;fill:#ff0000;fill-opacity:1;stroke:none;stroke-width:0.26458332"
           x="-186.9695"
           y="6.0316577"
           id="text4722"><tspan
             sodipodi:role="line"
             id="tspan4720"
             x="-186.9695"
             y="6.0316577"
             style="font-size:7.76111126px;fill:#ff0000;fill-opacity:1;stroke-width:0.26458332">COOL</tspan></text>
      </g>
      <rect
         y="-38.873955"
         x="-329.05499"
         height="3.0999999"
         width="14.9"
         id="rect4658"
         style="fill:none;fill-opacity:1;stroke:#000000;stroke-width:0.10000001;stroke-miterlimit:4;stroke-dasharray:none;stroke-opacity:1" />
      <rect
         style="fill:none;fill-opacity:1;stroke:#000000;stroke-width:0.10000001;stroke-miterlimit:4;stroke-dasharray:none;stroke-opacity:1"
         id="rect4660"
         width="14.9"
         height="3.0999999"
         x="-114.054"
         y="-38.873955" />
    </g>
    <g
       id="g4709"
       transform="rotate(-90,38.94437,139.32646)">
      <path
         sodipodi:nodetypes="ccccccccccccccccccccccccccccccccccccccccccccccccccccccccccccccccccccccccccccccccccccc"
         inkscape:connector-curvature="0"
         id="path4879"
         transform="scale(0.26458333)"
         d="M 272.6582,64.435547 V 75.396484 H 227.30469 V 120.75 h -10.96094 v 76.34766 h 10.96094 v 75.21289 h -10.96094 v 75.96679 h 10.96094 v 75.21289 h -10.96094 v 75.96875 h 10.96094 v 75.2129 h -10.96094 v 75.96874 h 10.96094 v 75.2129 h -10.96094 v 75.96875 h 10.96094 v 75.21093 h -10.96094 v 75.5918 h 10.96094 v 45.35352 h 45.35351 v 10.96098 h 75.58985 v -10.96098 h 75.21289 v 10.96098 h 76.72461 v -10.96098 h 75.21289 v 10.96098 h 75.96679 v -10.96098 h 75.21289 v 10.96098 h 75.5918 v -10.96098 h 45.35352 V 952.625 h 10.96094 v -76.34766 h -10.96094 v -75.21093 h 10.96094 v -75.96875 h -10.96094 v -75.21289 h 10.96094 v -75.96875 h -10.96094 v -75.2129 h 10.96094 v -75.96874 h -10.96094 v -75.2129 h 10.96094 V 271.55469 H 847.52344 V 196.3418 h 10.96094 V 120.75 H 847.52344 V 75.396484 H 802.16992 V 64.435547 h -75.5918 V 75.396484 H 651.36523 V 64.435547 H 575.39844 V 75.396484 H 500.18555 V 64.435547 H 424.2168 V 75.396484 H 349.00391 V 64.435547 Z"
         style="fill:none;fill-opacity:1;stroke:#000000;stroke-width:0.37795275;stroke-miterlimit:4;stroke-dasharray:none;stroke-opacity:1" />
      <circle
         r="2.2"
         cy="27.949207"
         cx="68.141319"
         id="path4696"
         style="fill:none;fill-opacity:1;stroke:#000000;stroke-width:0.10000001;stroke-miterlimit:4;stroke-dasharray:none;stroke-opacity:1" />
      <circle
         style="fill:none;fill-opacity:1;stroke:#000000;stroke-width:0.10000001;stroke-miterlimit:4;stroke-dasharray:none;stroke-opacity:1"
         id="circle4698"
         cx="216.24002"
         cy="27.948938"
         r="2.2" />
      <circle
         r="2.2"
         cy="256.04791"
         cx="216.24028"
         id="circle4700"
         style="fill:none;fill-opacity:1;stroke:#000000;stroke-width:0.10000001;stroke-miterlimit:4;stroke-dasharray:none;stroke-opacity:1" />
      <circle
         style="fill:none;fill-opacity:1;stroke:#000000;stroke-width:0.10000001;stroke-miterlimit:4;stroke-dasharray:none;stroke-opacity:1"
         id="circle4702"
         cx="68.141586"
         cy="256.04819"
         r="2.2" />
    </g>
    <g
       transform="rotate(180,202.73227,64.941865)"
       id="g4715">
      <path
         style="fill:none;fill-opacity:1;stroke:#000000;stroke-width:0.1;stroke-miterlimit:4;stroke-dasharray:none;stroke-opacity:1"
         d="m 176.91666,24.198543 v 3.10007 h -2.89957 l 24.89979,24.89978 v -2.9001 h 2.99981 v -4.9997 -9.90015 h -2.99981 v -7.09983 h -7.09983 v -3.00138 -0.0987 z"
         id="path4711"
         inkscape:connector-curvature="0" />
      <path
         style="fill:none;fill-opacity:1;stroke:#000000;stroke-width:0.1;stroke-miterlimit:4;stroke-dasharray:none;stroke-opacity:1"
         d="m 190.91633,33.849113 a 1.45,1.45 0 0 1 1.45004,1.45005 1.45,1.45 0 0 1 -1.45004,1.44952 1.45,1.45 0 0 1 -1.45004,-1.44952 1.45,1.45 0 0 1 1.45004,-1.45005 z"
         id="path4713"
         inkscape:connector-curvature="0" />
    </g>
    <g
       id="g4721"
       transform="rotate(180,219.22239,63.568875)">
      <path
         inkscape:connector-curvature="0"
         id="path4717"
         d="m 176.91666,24.198543 v 3.10007 h -2.89957 l 24.89979,24.89978 v -2.9001 h 2.99981 v -4.9997 -9.90015 h -2.99981 v -7.09983 h -7.09983 v -3.00138 -0.0987 z"
         style="fill:none;fill-opacity:1;stroke:#000000;stroke-width:0.1;stroke-miterlimit:4;stroke-dasharray:none;stroke-opacity:1" />
      <path
         inkscape:connector-curvature="0"
         id="path4719"
         d="m 190.91633,33.849113 a 1.45,1.45 0 0 1 1.45004,1.45005 1.45,1.45 0 0 1 -1.45004,1.44952 1.45,1.45 0 0 1 -1.45004,-1.44952 1.45,1.45 0 0 1 1.45004,-1.45005 z"
         style="fill:none;fill-opacity:1;stroke:#000000;stroke-width:0.1;stroke-miterlimit:4;stroke-dasharray:none;stroke-opacity:1" />
    </g>
    <g
       transform="rotate(180,252.99658,65.083755)"
       id="g4727">
      <path
         style="fill:none;fill-opacity:1;stroke:#000000;stroke-width:0.1;stroke-miterlimit:4;stroke-dasharray:none;stroke-opacity:1"
         d="m 176.91666,24.198543 v 3.10007 h -2.89957 l 24.89979,24.89978 v -2.9001 h 2.99981 v -4.9997 -9.90015 h -2.99981 v -7.09983 h -7.09983 v -3.00138 -0.0987 z"
         id="path4723"
         inkscape:connector-curvature="0" />
      <path
         style="fill:none;fill-opacity:1;stroke:#000000;stroke-width:0.1;stroke-miterlimit:4;stroke-dasharray:none;stroke-opacity:1"
         d="m 190.91633,33.849113 a 1.45,1.45 0 0 1 1.45004,1.45005 1.45,1.45 0 0 1 -1.45004,1.44952 1.45,1.45 0 0 1 -1.45004,-1.44952 1.45,1.45 0 0 1 1.45004,-1.45005 z"
         id="path4725"
         inkscape:connector-curvature="0" />
    </g>
  </g>
</svg>
